<svg version="1" xmlns="http://www.w3.org/2000/svg" width="800" height="800" viewBox="0 0 600.000000 600.000000"><path d="M302.8 31.5c-.2.1-4.1.6-8.8.9-4.7.4-9.8.9-11.5 1.1-1.6.2-5.2.7-8 1-4.6.6-24.5 3.9-29 4.9-11.7 2.5-35.8 9.9-43.5 13.3-35 15.7-58.8 32.1-77 53.1-22.7 26.1-37.6 62.6-40.6 99.4-2.3 27.2.9 48.2 9.3 61.3 7.7 12.1 24.9 22.7 40.6 25 2.3.4 4.5.9 4.8 1.1.4.2 5.9.7 12.3 1l11.6.7-1.6-3.9c-.9-2.1-2-4.4-2.4-4.9-2.1-2.8-5.1-14.8-5.9-23.3-1.2-15.1-.6-46.9 1.4-63.2.2-1.9.7-6 1-9 .4-3 1.3-8.5 2.1-12.2.7-3.7 1.6-8.2 1.9-10 1.8-10.3 9.6-29 16-38.8 4.2-6.3 15.5-18.3 19.2-20.3 1-.6 2-1.4 2.3-1.8 1.2-1.6 14-8 21-10.3 9.9-3.3 28.5-6.3 29.4-4.8.3.6-.6 5.4-4.8 24.7-.2 1.1-1.8 8.5-3.6 16.5-3.8 17.5-4 18.5-6.4 30.5-.3 1.1-3.9 18-8.1 37.5-4.2 19.5-7.8 36.1-8 37-.2.8-3.6 16.3-7.5 34.5-7.7 35.8-11 50.8-14.1 65.5-1.1 5.2-2.2 10.2-2.4 11-.2.8-1.8 8-3.5 16s-3.3 15.4-3.6 16.5c-.6 2.6-2.4 11.3-3 14.5-.4 2.2-1.3 6.6-2 9.5-.5 2.1-7.3 33.2-7.8 35.6-1 4.7-1.6 7.4-2.6 11.9-.5 2.5-1.2 5.6-1.4 7-.2 1.4-1 4.7-1.6 7.5-.6 2.7-1.4 6.1-1.6 7.5-.3 1.4-2 9.5-3.9 18-7.3 33.3-9.7 44.6-10.1 46.5-.4 2.2-1.2 5.8-1.9 9-.2 1.1-1.8 8.4-3.4 16.1-1.7 7.8-3.3 15.3-3.7 16.8l-.6 2.6H248l.6-2.7c.3-1.6 1-4.4 1.5-6.4s2-8.9 3.4-15.5c1.4-6.5 3.2-15 4-18.7.8-3.7 1.7-8.2 2-10 .3-1.8 1-4.8 1.5-6.7.5-1.9 2.1-9.1 3.6-16 1.4-6.9 2.8-13.4 3-14.5.3-1.1.7-3 1-4.1.2-1.2 2-9.5 4-18.5 1.9-9 3.7-17.5 4-18.9.3-1.4 1.1-5.3 1.9-8.6.8-3.4 1.6-7.3 1.9-8.5.7-4 5.5-26.5 9.1-42.9 1.9-8.5 3.6-16.6 3.9-18 .2-1.4 1-4.8 1.6-7.5.6-2.8 1.3-5.9 1.6-7 3.5-17.6 10.8-50.3 11.4-51.4.6-1.2 9.2-1.4 54.4-1.4 38.6 0 53.6-.3 53.7-1.1.1-1.6.4-3 5.9-28.4 2.7-12.9 5-23.8 5-24.3s-22-.9-53.5-.9c-29.4 0-53.5-.2-53.5-.4 0-.4 7-34.3 7.6-36.9 1.3-5.3 1.5-6.4 1.9-8.7.2-1.4.9-4.8 1.5-7.5.6-2.8 1.3-5.9 1.6-7 .2-1.1.8-4.3 1.4-7 .6-2.8 1.2-6.1 1.5-7.5.3-1.4 1.4-6.6 2.5-11.5 1.1-5 2.2-10.1 2.4-11.5.3-1.4 1.9-9 3.6-17 1.7-8 3.3-15.2 3.4-16 .2-.8.7-3.3 1.1-5.5 1.2-6.1 1.2-6.1 2-8.4.3-1.2 1-1.9 1.5-1.6.4.3 4.1 1.2 8.1 2.1 4.1.8 8.3 1.7 9.4 2 5.1 1.1 30.5 5.4 34.5 5.9 2.5.3 5.6.7 7 1 1.4.2 5.4.7 9 1 3.6.3 8.6.8 11.3 1.1 6.7.6 23.8.7 26.3.1 12.7-3.1 26.7-10.3 34.6-17.9 12.4-12 18.7-23.5 24.8-45.3 2.3-8.3 4.8-17.2 5.6-19.8 1.2-4.4 1.2-4.8-.4-4.3-3.5 1.1-18.9 4.6-22.7 5.1-2.2.4-5.1.8-6.5 1.1-15.8 2.7-55.7 2.2-88.5-1.1-2.7-.3-8.1-.7-12-1-3.8-.4-8.3-.8-10-1-1.6-.2-5.7-.7-9-1-3.3-.4-7.6-.9-9.5-1.2-3.6-.6-60.6-1.3-61.2-.8z"/></svg>